# xmcd CD database file
#
# Track frame offsets:
#	150
#	21824
#	37102
#	59208
#	73418
#	97139
#	115277
#	127250
#	155224
#	171830
#	185963
#	196848
#	217647
#	225889
#	236763
#	254891
#	270627
#	295539
#
# Disc length: 4252 seconds
#
# Revision: 0
# Processed by: cddbd v1.5.2PL0 Copyright (c) Steve Scherf et al.
# Submitted via: CDex 1.70beta2
#
DISCID=21109a12
DTITLE=Various Artist - Spirits Music for the Soul 2012 Disc 2
DYEAR=1900
DGENRE=New Age
TTITLE0=Michael Nyman - The Heart Asks Pleasure First - The Promise
TTITLE1=Libera - Orinoco Flow
TTITLE2=Dead Can Dance - Bird
TTITLE3=Secret Garden - Nocturne
TTITLE4=Julee Cruise - Falling
TTITLE5=Izzy - Song To The Siren
TTITLE6=Robbie Robertson and The Red Road Ensemble - Mahk Jchi (Heartbeat Drum Song)
TTITLE7=Craig Armstrong  - This Love
TTITLE8=Emily Van Evera - Sister Germaine Fritz - Richard Souther - For The Trinity
TTITLE9=Susheela Raman - Trust In Me
TTITLE10=Milla Jovovich - In A Glade
TTITLE11=Telepopmusik - Breathe
TTITLE12=The Mediaeval Babes - Alba
TTITLE13=Clannad - Theme From Harry's Game
TTITLE14=Era - Mother
TTITLE15=Rosenstolz - Amo Vitam
TTITLE16=Giorgio Moroder - Love's Theme From Midnight Express
TTITLE17=Zbigniew Preisner - Song For The Unification Of Europe
EXTD=
EXTT0=
EXTT1=
EXTT2=
EXTT3=
EXTT4=
EXTT5=
EXTT6=
EXTT7=
EXTT8=
EXTT9=
EXTT10=
EXTT11=
EXTT12=
EXTT13=
EXTT14=
EXTT15=
EXTT16=
EXTT17=
PLAYORDER=
